<svg width="60" height="64" viewBox="0 0 60 64" fill="none" xmlns="http://www.w3.org/2000/svg">
<path d="M38.7099 54.7282V55.9136H35.0491V54.7282H38.7099ZM35.9556 53.1768H37.6291V59.1212C37.6291 59.3032 37.6523 59.4427 37.6988 59.5395C37.7491 59.6364 37.8228 59.7042 37.9196 59.7429C38.0164 59.7778 38.1385 59.7952 38.2857 59.7952C38.3903 59.7952 38.4832 59.7913 38.5646 59.7836C38.6498 59.772 38.7215 59.7603 38.7796 59.7487L38.7854 60.9806C38.6421 61.0271 38.4871 61.0639 38.3205 61.091C38.154 61.1181 37.97 61.1317 37.7685 61.1317C37.4005 61.1317 37.079 61.0716 36.8039 60.9515C36.5328 60.8276 36.3236 60.63 36.1764 60.3588C36.0292 60.0877 35.9556 59.7313 35.9556 59.2897V53.1768Z" fill="white"/>
<path d="M31.7837 59.8243C31.989 59.8243 32.1711 59.7855 32.3299 59.708C32.4887 59.6267 32.6127 59.5144 32.7018 59.371C32.7947 59.2238 32.8432 59.0514 32.847 58.8539H34.4218C34.4179 59.2955 34.2997 59.6887 34.0673 60.0334C33.8349 60.3743 33.523 60.6436 33.1318 60.8411C32.7405 61.0348 32.3028 61.1317 31.8185 61.1317C31.3304 61.1317 30.9043 61.0503 30.5402 60.8876C30.1799 60.7249 29.8797 60.5002 29.6395 60.2136C29.3993 59.923 29.2192 59.586 29.0991 59.2025C28.979 58.8151 28.919 58.4006 28.919 57.959V57.7905C28.919 57.345 28.979 56.9305 29.0991 56.547C29.2192 56.1596 29.3993 55.8226 29.6395 55.5359C29.8797 55.2454 30.1799 55.0188 30.5402 54.8561C30.9004 54.6934 31.3227 54.612 31.8069 54.612C32.3221 54.612 32.7734 54.7108 33.1608 54.9084C33.5521 55.1059 33.8581 55.3887 34.0789 55.7567C34.3036 56.1209 34.4179 56.5528 34.4218 57.0525H32.847C32.8432 56.8433 32.7986 56.6535 32.7134 56.4831C32.632 56.3126 32.512 56.177 32.3531 56.0763C32.1982 55.9717 32.0064 55.9194 31.7779 55.9194C31.5338 55.9194 31.3343 55.9717 31.1794 56.0763C31.0244 56.177 30.9043 56.3165 30.8191 56.4947C30.7339 56.669 30.6738 56.8685 30.639 57.0932C30.608 57.314 30.5925 57.5464 30.5925 57.7905V57.959C30.5925 58.2031 30.608 58.4374 30.639 58.6621C30.6699 58.8868 30.7281 59.0863 30.8133 59.2606C30.9024 59.4349 31.0244 59.5725 31.1794 59.6732C31.3343 59.7739 31.5357 59.8243 31.7837 59.8243Z" fill="white"/>
<path d="M25.4153 61.1317C24.9272 61.1317 24.4895 61.0542 24.1021 60.8993C23.7147 60.7404 23.3854 60.5215 23.1143 60.2426C22.847 59.9637 22.6416 59.6403 22.4983 59.2722C22.355 58.9003 22.2833 58.5052 22.2833 58.0868V57.8544C22.2833 57.3779 22.3511 56.9421 22.4867 56.547C22.6223 56.1519 22.816 55.809 23.0678 55.5185C23.3234 55.228 23.6334 55.0052 23.9975 54.8503C24.3616 54.6914 24.7723 54.612 25.2294 54.612C25.6749 54.612 26.07 54.6856 26.4148 54.8328C26.7595 54.98 27.0481 55.1892 27.2806 55.4604C27.5169 55.7316 27.6951 56.057 27.8152 56.4366C27.9352 56.8124 27.9953 57.2307 27.9953 57.6917V58.389H22.998V57.2733H26.3508V57.1455C26.3508 56.9131 26.3082 56.7058 26.223 56.5238C26.1417 56.3378 26.0177 56.1906 25.8511 56.0821C25.6845 55.9737 25.4715 55.9194 25.2119 55.9194C24.9911 55.9194 24.8013 55.9679 24.6425 56.0647C24.4837 56.1615 24.3539 56.2971 24.2532 56.4715C24.1563 56.6458 24.0827 56.8511 24.0324 57.0874C23.9859 57.3198 23.9626 57.5755 23.9626 57.8544V58.0868C23.9626 58.3386 23.9975 58.5711 24.0672 58.7841C24.1408 58.9972 24.2435 59.1812 24.3752 59.3362C24.5108 59.4911 24.6735 59.6112 24.8633 59.6964C25.057 59.7816 25.2759 59.8243 25.5199 59.8243C25.8221 59.8243 26.1029 59.7662 26.3625 59.6499C26.6259 59.5299 26.8525 59.3497 27.0423 59.1095L27.8558 59.9928C27.7241 60.1826 27.544 60.3647 27.3154 60.539C27.0908 60.7133 26.8196 60.8566 26.5019 60.969C26.1843 61.0774 25.8221 61.1317 25.4153 61.1317Z" fill="white"/>
<path d="M19.2736 54.7282H20.9529V61.3932C20.9529 61.858 20.8677 62.2512 20.6972 62.5727C20.5268 62.8943 20.2808 63.1383 19.9592 63.3049C19.6377 63.4715 19.2484 63.5548 18.7913 63.5548C18.648 63.5548 18.5085 63.547 18.3729 63.5315C18.2335 63.516 18.0901 63.4908 17.9429 63.456L17.9487 62.1718C18.0417 62.1873 18.1327 62.1989 18.2218 62.2067C18.3071 62.2183 18.3942 62.2241 18.4833 62.2241C18.6576 62.2241 18.8029 62.195 18.9191 62.1369C19.0353 62.0788 19.1225 61.9878 19.1806 61.8638C19.2426 61.7437 19.2736 61.5869 19.2736 61.3932V54.7282ZM19.1399 53.0896C19.1399 52.8455 19.2252 52.6441 19.3956 52.4853C19.5699 52.3264 19.7985 52.247 20.0813 52.247C20.3679 52.247 20.5965 52.3264 20.7669 52.4853C20.9374 52.6441 21.0226 52.8455 21.0226 53.0896C21.0226 53.3336 20.9374 53.5351 20.7669 53.6939C20.5965 53.8527 20.3679 53.9322 20.0813 53.9322C19.7985 53.9322 19.5699 53.8527 19.3956 53.6939C19.2252 53.5351 19.1399 53.3336 19.1399 53.0896Z" fill="white"/>
<path d="M11.9581 57.9358V57.8137C11.9581 57.3528 12.0239 56.9286 12.1556 56.5412C12.2873 56.1499 12.4791 55.811 12.7309 55.5243C12.9827 55.2376 13.2926 55.0149 13.6606 54.8561C14.0286 54.6934 14.4509 54.612 14.9274 54.612C15.4038 54.612 15.828 54.6934 16.1999 54.8561C16.5718 55.0149 16.8837 55.2376 17.1355 55.5243C17.3911 55.811 17.5848 56.1499 17.7165 56.5412C17.8482 56.9286 17.9141 57.3528 17.9141 57.8137V57.9358C17.9141 58.3929 17.8482 58.8171 17.7165 59.2083C17.5848 59.5957 17.3911 59.9347 17.1355 60.2252C16.8837 60.5119 16.5737 60.7346 16.2057 60.8934C15.8377 61.0523 15.4155 61.1317 14.939 61.1317C14.4625 61.1317 14.0383 61.0523 13.6664 60.8934C13.2984 60.7346 12.9866 60.5119 12.7309 60.2252C12.4791 59.9347 12.2873 59.5957 12.1556 59.2083C12.0239 58.8171 11.9581 58.3929 11.9581 57.9358ZM13.6316 57.8137V57.9358C13.6316 58.1992 13.6548 58.4452 13.7013 58.6737C13.7478 58.9023 13.8214 59.1037 13.9221 59.278C14.0267 59.4485 14.1623 59.5821 14.3289 59.679C14.4954 59.7758 14.6988 59.8243 14.939 59.8243C15.1714 59.8243 15.3709 59.7758 15.5375 59.679C15.7041 59.5821 15.8377 59.4485 15.9384 59.278C16.0392 59.1037 16.1128 58.9023 16.1592 58.6737C16.2096 58.4452 16.2348 58.1992 16.2348 57.9358V57.8137C16.2348 57.5581 16.2096 57.3179 16.1592 57.0932C16.1128 56.8646 16.0372 56.6632 15.9326 56.4889C15.8319 56.3107 15.6983 56.1712 15.5317 56.0705C15.3651 55.9698 15.1637 55.9194 14.9274 55.9194C14.6911 55.9194 14.4896 55.9698 14.323 56.0705C14.1603 56.1712 14.0267 56.3107 13.9221 56.4889C13.8214 56.6632 13.7478 56.8646 13.7013 57.0932C13.6548 57.3179 13.6316 57.5581 13.6316 57.8137Z" fill="white"/>
<path d="M9.47711 56.0996V61.0155H7.80361V54.7282H9.37833L9.47711 56.0996ZM11.3714 54.6876L11.3424 56.239C11.261 56.2274 11.1622 56.2177 11.046 56.21C10.9337 56.1983 10.831 56.1925 10.738 56.1925C10.5017 56.1925 10.2964 56.2235 10.1221 56.2855C9.95165 56.3436 9.80832 56.4308 9.69211 56.547C9.57977 56.6632 9.49454 56.8046 9.43643 56.9712C9.3822 57.1378 9.35121 57.3276 9.34346 57.5406L9.00644 57.436C9.00644 57.0293 9.04711 56.6555 9.12846 56.3146C9.20982 55.9698 9.32797 55.6696 9.48292 55.4139C9.64175 55.1582 9.83544 54.9607 10.064 54.8212C10.2926 54.6817 10.554 54.612 10.8484 54.612C10.9414 54.612 11.0363 54.6198 11.1332 54.6353C11.23 54.6469 11.3094 54.6643 11.3714 54.6876Z" fill="white"/>
<path d="M3.2947 57.9997H1.13891V56.64H3.2947C3.62785 56.64 3.89902 56.5857 4.1082 56.4773C4.31739 56.3649 4.47041 56.21 4.56725 56.0124C4.6641 55.8148 4.71252 55.5921 4.71252 55.3442C4.71252 55.0924 4.6641 54.858 4.56725 54.6411C4.47041 54.4241 4.31739 54.2498 4.1082 54.1181C3.89902 53.9864 3.62785 53.9205 3.2947 53.9205H1.74323V61.0155H0V52.555H3.2947C3.95712 52.555 4.52464 52.6751 4.99725 52.9153C5.47373 53.1516 5.83787 53.4789 6.08967 53.8973C6.34147 54.3157 6.46737 54.7941 6.46737 55.3325C6.46737 55.8788 6.34147 56.3514 6.08967 56.7504C5.83787 57.1494 5.47373 57.4573 4.99725 57.6743C4.52464 57.8912 3.95712 57.9997 3.2947 57.9997Z" fill="white"/>
<path d="M57.42 46.6812C56.9319 46.6812 56.4942 46.6037 56.1068 46.4487C55.7194 46.2899 55.3901 46.071 55.119 45.7921C54.8517 45.5132 54.6464 45.1897 54.503 44.8217C54.3597 44.4498 54.288 44.0547 54.288 43.6363V43.4039C54.288 42.9274 54.3558 42.4916 54.4914 42.0965C54.627 41.7013 54.8207 41.3585 55.0725 41.068C55.3282 40.7774 55.6381 40.5547 56.0022 40.3997C56.3663 40.2409 56.777 40.1615 57.2341 40.1615C57.6796 40.1615 58.0747 40.2351 58.4195 40.3823C58.7642 40.5295 59.0528 40.7387 59.2853 41.0099C59.5216 41.281 59.6998 41.6064 59.8199 41.9861C59.94 42.3618 60 42.7802 60 43.2412V43.9385H55.0028V42.8228H58.3556V42.695C58.3556 42.4626 58.3129 42.2553 58.2277 42.0732C58.1464 41.8873 58.0224 41.7401 57.8558 41.6316C57.6893 41.5231 57.4762 41.4689 57.2166 41.4689C56.9958 41.4689 56.806 41.5173 56.6472 41.6142C56.4884 41.711 56.3586 41.8466 56.2579 42.0209C56.161 42.1953 56.0874 42.4006 56.0371 42.6369C55.9906 42.8693 55.9673 43.125 55.9673 43.4039V43.6363C55.9673 43.8881 56.0022 44.1206 56.0719 44.3336C56.1455 44.5467 56.2482 44.7307 56.3799 44.8856C56.5155 45.0406 56.6782 45.1607 56.868 45.2459C57.0617 45.3311 57.2806 45.3737 57.5246 45.3737C57.8268 45.3737 58.1076 45.3156 58.3672 45.1994C58.6306 45.0793 58.8572 44.8992 59.047 44.659L59.8605 45.5423C59.7288 45.7321 59.5487 45.9141 59.3201 46.0885C59.0955 46.2628 58.8243 46.4061 58.5066 46.5185C58.189 46.6269 57.8268 46.6812 57.42 46.6812Z" fill="white"/>
<path d="M51.47 40.2777H52.9867V46.3558C52.9867 46.9291 52.8588 47.4153 52.6031 47.8143C52.3513 48.2171 51.9988 48.5212 51.5456 48.7265C51.0923 48.9357 50.5655 49.0403 49.9651 49.0403C49.7016 49.0403 49.4227 49.0055 49.1283 48.9357C48.8378 48.866 48.5589 48.7575 48.2916 48.6103C48.0281 48.4631 47.8073 48.2772 47.6291 48.0525L48.3671 47.0647C48.5608 47.2894 48.7855 47.4637 49.0411 47.5876C49.2968 47.7155 49.5796 47.7794 49.8895 47.7794C50.1917 47.7794 50.4474 47.7232 50.6565 47.6109C50.8657 47.5024 51.0265 47.3417 51.1388 47.1286C51.2512 46.9194 51.3073 46.6657 51.3073 46.3674V41.7304L51.47 40.2777ZM47.2398 43.4969V43.3748C47.2398 42.8945 47.2979 42.4587 47.4141 42.0674C47.5342 41.6723 47.7027 41.3333 47.9197 41.0505C48.1405 40.7677 48.4078 40.5489 48.7216 40.3939C49.0353 40.239 49.3898 40.1615 49.7849 40.1615C50.2033 40.1615 50.5539 40.239 50.8367 40.3939C51.1195 40.5489 51.3519 40.7697 51.534 41.0564C51.716 41.3391 51.8574 41.6742 51.9581 42.0616C52.0627 42.4451 52.1441 42.8654 52.2022 43.3225V43.5898C52.1441 44.0276 52.0569 44.4343 51.9407 44.8101C51.8245 45.1859 51.6715 45.5151 51.4817 45.7979C51.2919 46.0768 51.0555 46.2938 50.7728 46.4487C50.4938 46.6037 50.1607 46.6812 49.7733 46.6812C49.3859 46.6812 49.0353 46.6017 48.7216 46.4429C48.4117 46.2841 48.1463 46.0613 47.9255 45.7747C47.7047 45.488 47.5342 45.151 47.4141 44.7636C47.2979 44.3762 47.2398 43.954 47.2398 43.4969ZM48.9133 43.3748V43.4969C48.9133 43.7564 48.9385 43.9985 48.9889 44.2232C49.0392 44.4479 49.1167 44.6474 49.2213 44.8217C49.3298 44.9922 49.4634 45.1258 49.6222 45.2227C49.7849 45.3156 49.9767 45.3621 50.1975 45.3621C50.5035 45.3621 50.7534 45.2982 50.9471 45.1704C51.1408 45.0387 51.286 44.8585 51.3829 44.63C51.4797 44.4014 51.5359 44.138 51.5514 43.8397V43.0785C51.5436 42.8344 51.5107 42.6156 51.4526 42.4219C51.3945 42.2243 51.3132 42.0558 51.2086 41.9163C51.104 41.7769 50.9684 41.6684 50.8018 41.5909C50.6352 41.5135 50.4377 41.4747 50.2091 41.4747C49.9883 41.4747 49.7965 41.5251 49.6338 41.6258C49.475 41.7226 49.3414 41.8563 49.2329 42.0267C49.1283 42.1972 49.0489 42.3986 48.9947 42.6311C48.9404 42.8596 48.9133 43.1075 48.9133 43.3748Z" fill="white"/>
<path d="M44.2591 45.1936V37.6396H45.9443V46.5649H44.4276L44.2591 45.1936ZM40.2846 43.4969V43.3748C40.2846 42.8945 40.3388 42.4587 40.4473 42.0674C40.5557 41.6723 40.7146 41.3333 40.9238 41.0505C41.1329 40.7677 41.3906 40.5489 41.6966 40.3939C42.0026 40.239 42.3513 40.1615 42.7425 40.1615C43.1105 40.1615 43.4321 40.239 43.7071 40.3939C43.986 40.5489 44.2223 40.7697 44.416 41.0564C44.6136 41.3391 44.7724 41.6742 44.8925 42.0616C45.0126 42.4451 45.0998 42.8654 45.154 43.3225V43.5898C45.0998 44.0276 45.0126 44.4343 44.8925 44.8101C44.7724 45.1859 44.6136 45.5151 44.416 45.7979C44.2223 46.0768 43.986 46.2938 43.7071 46.4487C43.4282 46.6037 43.1028 46.6812 42.7309 46.6812C42.3396 46.6812 41.991 46.6017 41.685 46.4429C41.3828 46.2841 41.1271 46.0613 40.9179 45.7747C40.7126 45.488 40.5557 45.151 40.4473 44.7636C40.3388 44.3762 40.2846 43.954 40.2846 43.4969ZM41.9581 43.3748V43.4969C41.9581 43.7564 41.9774 43.9985 42.0162 44.2232C42.0588 44.4479 42.1266 44.6474 42.2196 44.8217C42.3164 44.9922 42.4404 45.1258 42.5914 45.2227C42.7464 45.3156 42.9343 45.3621 43.1551 45.3621C43.4418 45.3621 43.6781 45.2982 43.864 45.1704C44.0499 45.0387 44.1913 44.8585 44.2882 44.63C44.3889 44.4014 44.447 44.138 44.4625 43.8397V43.0785C44.4509 42.8344 44.416 42.6156 44.3579 42.4219C44.3037 42.2243 44.2223 42.0558 44.1139 41.9163C44.0093 41.7769 43.8776 41.6684 43.7187 41.5909C43.5638 41.5135 43.3798 41.4747 43.1667 41.4747C42.9498 41.4747 42.7638 41.5251 42.6089 41.6258C42.4539 41.7226 42.328 41.8563 42.2312 42.0267C42.1382 42.1972 42.0685 42.3986 42.022 42.6311C41.9794 42.8596 41.9581 43.1075 41.9581 43.3748Z" fill="white"/>
<path d="M36.7751 46.6812C36.287 46.6812 35.8493 46.6037 35.4619 46.4487C35.0745 46.2899 34.7452 46.071 34.4741 45.7921C34.2068 45.5132 34.0014 45.1897 33.8581 44.8217C33.7148 44.4498 33.6431 44.0547 33.6431 43.6363V43.4039C33.6431 42.9274 33.7109 42.4916 33.8465 42.0965C33.9821 41.7013 34.1758 41.3585 34.4276 41.068C34.6832 40.7774 34.9931 40.5547 35.3573 40.3997C35.7214 40.2409 36.1321 40.1615 36.5892 40.1615C37.0347 40.1615 37.4298 40.2351 37.7746 40.3823C38.1193 40.5295 38.4079 40.7387 38.6404 41.0099C38.8767 41.281 39.0549 41.6064 39.175 41.9861C39.295 42.3618 39.3551 42.7802 39.3551 43.2412V43.9385H34.3578V42.8228H37.7106V42.695C37.7106 42.4626 37.668 42.2553 37.5828 42.0732C37.5015 41.8873 37.3775 41.7401 37.2109 41.6316C37.0443 41.5231 36.8313 41.4689 36.5717 41.4689C36.3509 41.4689 36.1611 41.5173 36.0023 41.6142C35.8435 41.711 35.7137 41.8466 35.613 42.0209C35.5161 42.1953 35.4425 42.4006 35.3922 42.6369C35.3457 42.8693 35.3224 43.125 35.3224 43.4039V43.6363C35.3224 43.8881 35.3573 44.1206 35.427 44.3336C35.5006 44.5467 35.6033 44.7307 35.735 44.8856C35.8706 45.0406 36.0333 45.1607 36.2231 45.2459C36.4168 45.3311 36.6357 45.3737 36.8797 45.3737C37.1819 45.3737 37.4627 45.3156 37.7223 45.1994C37.9857 45.0793 38.2123 44.8992 38.4021 44.659L39.2156 45.5423C39.0839 45.7321 38.9038 45.9141 38.6752 46.0885C38.4505 46.2628 38.1794 46.4061 37.8617 46.5185C37.5441 46.6269 37.1819 46.6812 36.7751 46.6812Z" fill="white"/>
<path d="M32.2604 37.6396V46.5649H30.5811V37.6396H32.2604Z" fill="white"/>
<path d="M23.3121 44.9379L24.6195 40.2777H25.6828L25.34 42.1081L24.0326 46.5649H23.1435L23.3121 44.9379ZM22.6496 40.2777L23.5852 44.9321L23.6723 46.5649H22.6264L21.0342 40.2777H22.6496ZM26.8799 44.8566L27.7921 40.2777H29.4133L27.8212 46.5649H26.7811L26.8799 44.8566ZM25.8281 40.2777L27.1297 44.9031L27.3099 46.5649H26.415L25.1076 42.1139L24.7764 40.2777H25.8281Z" fill="white"/>
<path d="M14.294 43.4852V43.3632C14.294 42.9022 14.3598 42.478 14.4916 42.0907C14.6233 41.6994 14.815 41.3604 15.0668 41.0738C15.3186 40.7871 15.6285 40.5644 15.9965 40.4055C16.3646 40.2428 16.7868 40.1615 17.2633 40.1615C17.7398 40.1615 18.164 40.2428 18.5358 40.4055C18.9077 40.5644 19.2196 40.7871 19.4714 41.0738C19.7271 41.3604 19.9207 41.6994 20.0525 42.0907C20.1842 42.478 20.25 42.9022 20.25 43.3632V43.4852C20.25 43.9424 20.1842 44.3665 20.0525 44.7578C19.9207 45.1452 19.7271 45.4841 19.4714 45.7747C19.2196 46.0613 18.9097 46.2841 18.5417 46.4429C18.1736 46.6017 17.7514 46.6812 17.2749 46.6812C16.7984 46.6812 16.3742 46.6017 16.0024 46.4429C15.6343 46.2841 15.3225 46.0613 15.0668 45.7747C14.815 45.4841 14.6233 45.1452 14.4916 44.7578C14.3598 44.3665 14.294 43.9424 14.294 43.4852ZM15.9675 43.3632V43.4852C15.9675 43.7487 15.9907 43.9947 16.0372 44.2232C16.0837 44.4518 16.1573 44.6532 16.258 44.8275C16.3626 44.998 16.4982 45.1316 16.6648 45.2285C16.8314 45.3253 17.0347 45.3737 17.2749 45.3737C17.5073 45.3737 17.7068 45.3253 17.8734 45.2285C18.04 45.1316 18.1736 44.998 18.2744 44.8275C18.3751 44.6532 18.4487 44.4518 18.4952 44.2232C18.5455 43.9947 18.5707 43.7487 18.5707 43.4852V43.3632C18.5707 43.1075 18.5455 42.8674 18.4952 42.6427C18.4487 42.4141 18.3731 42.2127 18.2686 42.0384C18.1678 41.8602 18.0342 41.7207 17.8676 41.62C17.701 41.5193 17.4996 41.4689 17.2633 41.4689C17.027 41.4689 16.8255 41.5193 16.659 41.62C16.4963 41.7207 16.3626 41.8602 16.258 42.0384C16.1573 42.2127 16.0837 42.4141 16.0372 42.6427C15.9907 42.8674 15.9675 43.1075 15.9675 43.3632Z" fill="white"/>
<path d="M9.29117 41.62V46.5649H7.61767V40.2777H9.18657L9.29117 41.62ZM9.04711 43.2005H8.59387C8.59387 42.7357 8.65392 42.3173 8.77401 41.9454C8.8941 41.5696 9.06261 41.25 9.27954 40.9866C9.49648 40.7193 9.75409 40.5159 10.0524 40.3765C10.3545 40.2332 10.6916 40.1615 11.0634 40.1615C11.3579 40.1615 11.6271 40.2041 11.8711 40.2893C12.1152 40.3746 12.3244 40.5101 12.4987 40.6961C12.6769 40.882 12.8125 41.128 12.9055 41.434C13.0023 41.7401 13.0507 42.1139 13.0507 42.5555V46.5649H11.3656V42.5497C11.3656 42.2708 11.3269 42.0539 11.2494 41.8989C11.1719 41.744 11.0576 41.6355 10.9066 41.5735C10.7593 41.5077 10.5773 41.4747 10.3603 41.4747C10.1357 41.4747 9.94003 41.5193 9.77346 41.6084C9.61076 41.6975 9.47517 41.8214 9.36671 41.9803C9.26211 42.1352 9.1827 42.3173 9.12846 42.5265C9.07423 42.7357 9.04711 42.9603 9.04711 43.2005Z" fill="white"/>
<path d="M1.74323 38.1045V46.5649H0V38.1045H1.74323ZM6.81021 38.1045L3.4574 42.2824L1.52242 44.3627L1.20864 42.7124L2.51606 40.9227L4.67185 38.1045H6.81021ZM4.82874 46.5649L2.33592 42.6543L3.62591 41.5735L6.89156 46.5649H4.82874Z" fill="white"/>
<path d="M31.0167 30.9232C31.222 30.9232 31.404 30.8845 31.5629 30.807C31.7217 30.7257 31.8457 30.6133 31.9348 30.47C32.0277 30.3228 32.0761 30.1504 32.08 29.9528H33.6547C33.6509 30.3944 33.5327 30.7876 33.3003 31.1324C33.0678 31.4733 32.756 31.7425 32.3647 31.9401C31.9735 32.1338 31.5357 32.2306 31.0515 32.2306C30.5634 32.2306 30.1373 32.1493 29.7732 31.9866C29.4129 31.8239 29.1127 31.5992 28.8725 31.3125C28.6323 31.022 28.4522 30.685 28.3321 30.3015C28.212 29.9141 28.152 29.4996 28.152 29.058V28.8895C28.152 28.444 28.212 28.0295 28.3321 27.646C28.4522 27.2586 28.6323 26.9215 28.8725 26.6349C29.1127 26.3443 29.4129 26.1177 29.7732 25.955C30.1334 25.7923 30.5557 25.711 31.0399 25.711C31.5551 25.711 32.0064 25.8098 32.3938 26.0073C32.7851 26.2049 33.0911 26.4877 33.3119 26.8557C33.5366 27.2198 33.6509 27.6518 33.6547 28.1515H32.08C32.0761 27.9423 32.0316 27.7525 31.9464 27.582C31.865 27.4116 31.7449 27.276 31.5861 27.1753C31.4312 27.0707 31.2394 27.0184 31.0108 27.0184C30.7668 27.0184 30.5673 27.0707 30.4123 27.1753C30.2574 27.276 30.1373 27.4155 30.0521 27.5937C29.9668 27.768 29.9068 27.9675 29.8719 28.1922C29.8409 28.413 29.8254 28.6454 29.8254 28.8895V29.058C29.8254 29.302 29.8409 29.5364 29.8719 29.7611C29.9029 29.9858 29.961 30.1853 30.0463 30.3596C30.1354 30.5339 30.2574 30.6714 30.4123 30.7721C30.5673 30.8729 30.7687 30.9232 31.0167 30.9232Z" fill="white"/>
<path d="M26.7983 25.8272V32.1144H25.119V25.8272H26.7983ZM25.0144 24.1886C25.0144 23.9445 25.0996 23.7431 25.27 23.5842C25.4405 23.4254 25.6691 23.346 25.9557 23.346C26.2385 23.346 26.4651 23.4254 26.6356 23.5842C26.8099 23.7431 26.8971 23.9445 26.8971 24.1886C26.8971 24.4326 26.8099 24.634 26.6356 24.7929C26.4651 24.9517 26.2385 25.0311 25.9557 25.0311C25.6691 25.0311 25.4405 24.9517 25.27 24.7929C25.0996 24.634 25.0144 24.4326 25.0144 24.1886Z" fill="white"/>
<path d="M23.4108 23.1891V32.1144H21.7315V23.1891H23.4108Z" fill="white"/>
<path d="M14.7124 23.1891H16.3859V30.6734L16.2174 32.1144H14.7124V23.1891ZM20.3662 28.9069V29.0289C20.3662 29.4977 20.3159 29.9276 20.2152 30.3189C20.1183 30.7102 19.9672 31.0491 19.7619 31.3358C19.5566 31.6186 19.3009 31.8394 18.9949 31.9982C18.6927 32.1532 18.3363 32.2306 17.9257 32.2306C17.5422 32.2306 17.2091 32.1532 16.9263 31.9982C16.6474 31.8433 16.413 31.6244 16.2232 31.3416C16.0333 31.0588 15.8803 30.7276 15.7641 30.348C15.6479 29.9683 15.5607 29.5538 15.5026 29.1045V28.8372C15.5607 28.3878 15.6479 27.9733 15.7641 27.5937C15.8803 27.214 16.0333 26.8828 16.2232 26.6C16.413 26.3172 16.6474 26.0984 16.9263 25.9434C17.2052 25.7885 17.5345 25.711 17.9141 25.711C18.3286 25.711 18.6889 25.7904 18.9949 25.9492C19.3048 26.1042 19.5605 26.325 19.7619 26.6116C19.9672 26.8944 20.1183 27.2315 20.2152 27.6227C20.3159 28.0101 20.3662 28.4382 20.3662 28.9069ZM18.6927 29.0289V28.9069C18.6927 28.6512 18.6734 28.411 18.6346 28.1864C18.5998 27.9578 18.5378 27.7583 18.4487 27.5878C18.3596 27.4135 18.2376 27.276 18.0826 27.1753C17.9315 27.0746 17.7359 27.0242 17.4957 27.0242C17.2672 27.0242 17.0735 27.0629 16.9146 27.1404C16.7558 27.2179 16.6241 27.3264 16.5195 27.4658C16.4188 27.6053 16.3433 27.7719 16.2929 27.9655C16.2425 28.1554 16.2115 28.3646 16.1999 28.5931V29.3543C16.2115 29.6604 16.2619 29.9315 16.351 30.1678C16.444 30.4003 16.5834 30.5843 16.7694 30.7198C16.9592 30.8516 17.2052 30.9174 17.5073 30.9174C17.7436 30.9174 17.9393 30.8709 18.0942 30.778C18.2492 30.685 18.3693 30.5533 18.4545 30.3828C18.5436 30.2124 18.6056 30.0129 18.6404 29.7843C18.6753 29.5519 18.6927 29.3001 18.6927 29.0289Z" fill="white"/>
<path d="M11.5225 30.6094V25.8272H13.196V32.1144H11.6213L11.5225 30.6094ZM11.7084 29.3195L12.2024 29.3078C12.2024 29.7262 12.1539 30.1155 12.0571 30.4758C11.9602 30.8322 11.815 31.1421 11.6213 31.4055C11.4276 31.6651 11.1835 31.8684 10.8891 32.0156C10.5947 32.159 10.248 32.2306 9.849 32.2306C9.54296 32.2306 9.26017 32.188 9.00063 32.1028C8.74496 32.0137 8.52415 31.8762 8.3382 31.6902C8.15613 31.5004 8.0128 31.2583 7.90821 30.9639C7.80749 30.6656 7.75713 30.3073 7.75713 29.8889V25.8272H9.43062V29.9005C9.43062 30.0865 9.45193 30.2434 9.49454 30.3712C9.54103 30.499 9.60495 30.6036 9.6863 30.685C9.76765 30.7663 9.86256 30.8244 9.97102 30.8593C10.0834 30.8942 10.2073 30.9116 10.3429 30.9116C10.6877 30.9116 10.9589 30.8419 11.1564 30.7024C11.3579 30.563 11.4993 30.3731 11.5806 30.133C11.6658 29.8889 11.7084 29.6177 11.7084 29.3195Z" fill="white"/>
<path d="M3.2947 29.0986H1.13891V27.7389H3.2947C3.62785 27.7389 3.89902 27.6847 4.1082 27.5762C4.31739 27.4639 4.47041 27.3089 4.56725 27.1114C4.6641 26.9138 4.71252 26.6911 4.71252 26.4431C4.71252 26.1913 4.6641 25.957 4.56725 25.74C4.47041 25.5231 4.31739 25.3488 4.1082 25.2171C3.89902 25.0854 3.62785 25.0195 3.2947 25.0195H1.74323V32.1144H0V23.654H3.2947C3.95712 23.654 4.52464 23.7741 4.99725 24.0142C5.47373 24.2505 5.83787 24.5779 6.08967 24.9963C6.34147 25.4146 6.46737 25.893 6.46737 26.4315C6.46737 26.9777 6.34147 27.4503 6.08967 27.8493C5.83787 28.2483 5.47373 28.5563 4.99725 28.7732C4.52464 28.9902 3.95712 29.0986 3.2947 29.0986Z" fill="white"/>
<path d="M54.3808 8.53604L56.339 2.87636H57.0886L54.4273 10.1747C54.373 10.318 54.3033 10.4768 54.2181 10.6512C54.1367 10.8255 54.0283 10.9921 53.8927 11.1509C53.761 11.3136 53.5944 11.4453 53.3929 11.546C53.1954 11.6506 52.9533 11.7029 52.6666 11.7029C52.593 11.7029 52.4981 11.6932 52.3819 11.6738C52.2695 11.6584 52.1882 11.6429 52.1378 11.6274L52.132 11.0405C52.1746 11.0521 52.2366 11.0618 52.318 11.0695C52.3993 11.0773 52.4555 11.0812 52.4865 11.0812C52.7383 11.0812 52.9494 11.0385 53.1198 10.9533C53.2942 10.8681 53.4394 10.7403 53.5556 10.5698C53.6719 10.4032 53.7745 10.194 53.8636 9.94224L54.3808 8.53604ZM52.5504 2.87636L54.5551 8.27456L54.741 9.0009L54.2355 9.28563L51.795 2.87636H52.5504Z" fill="white"/>
<path d="M45.7346 0.238281H46.4319V7.94334L46.3854 9.1636H45.7346V0.238281ZM50.8074 5.96188V6.0839C50.8074 6.55264 50.7532 6.98263 50.6447 7.37389C50.5362 7.76515 50.3793 8.10411 50.174 8.39077C49.9687 8.67356 49.7169 8.89243 49.4186 9.04739C49.1242 9.20234 48.7852 9.27982 48.4017 9.27982C48.026 9.27982 47.6928 9.22171 47.4023 9.10549C47.1117 8.9854 46.8638 8.81689 46.6585 8.59996C46.4532 8.37915 46.2886 8.12154 46.1646 7.82713C46.0406 7.52884 45.9535 7.2015 45.9031 6.84511V5.29364C45.9612 4.914 46.0542 4.56923 46.182 4.25932C46.3099 3.94942 46.4745 3.68212 46.6759 3.45744C46.8813 3.23276 47.1253 3.06037 47.4081 2.94028C47.6948 2.82019 48.0221 2.76015 48.3901 2.76015C48.7736 2.76015 49.1145 2.83569 49.4128 2.98677C49.715 3.13397 49.9687 3.34897 50.174 3.63176C50.3793 3.91068 50.5362 4.2477 50.6447 4.64283C50.7532 5.03409 50.8074 5.47377 50.8074 5.96188ZM50.1043 6.0839V5.96188C50.1043 5.59386 50.0694 5.25296 49.9997 4.93918C49.93 4.6254 49.8196 4.3523 49.6685 4.11987C49.5213 3.88356 49.3315 3.69955 49.099 3.56784C48.8666 3.43613 48.5877 3.37028 48.2623 3.37028C47.9291 3.37028 47.6444 3.42645 47.4081 3.53879C47.1757 3.64726 46.982 3.79253 46.827 3.9746C46.6759 4.15279 46.5559 4.34842 46.4668 4.56148C46.3777 4.77454 46.3118 4.98373 46.2692 5.18904V6.99619C46.335 7.28673 46.4493 7.55983 46.612 7.81551C46.7747 8.07118 46.9936 8.27843 47.2686 8.43726C47.5437 8.59221 47.8788 8.66969 48.2739 8.66969C48.5916 8.66969 48.8647 8.60383 49.0932 8.47212C49.3256 8.34041 49.5155 8.15834 49.6627 7.92591C49.8138 7.69348 49.9242 7.42038 49.9939 7.10659C50.0675 6.79281 50.1043 6.45192 50.1043 6.0839Z" fill="white"/>
<path d="M39.9011 2.87636H40.5461V9.0532C40.5461 9.59941 40.4415 10.0681 40.2323 10.4594C40.027 10.8507 39.7345 11.1509 39.3549 11.3601C38.9791 11.5693 38.5355 11.6738 38.0242 11.6738C37.7646 11.6738 37.4973 11.6332 37.2223 11.5518C36.9511 11.4743 36.6935 11.3543 36.4495 11.1916C36.2093 11.0327 36.004 10.8352 35.8335 10.5989L36.2229 10.1747C36.4785 10.4846 36.7516 10.7112 37.0422 10.8545C37.3327 11.0017 37.6465 11.0753 37.9835 11.0753C38.3825 11.0753 38.7195 10.9959 38.9946 10.8371C39.2735 10.6783 39.4846 10.4497 39.628 10.1514C39.7752 9.85314 39.8488 9.49481 39.8488 9.07644V4.25932L39.9011 2.87636ZM35.4849 6.0839V5.96188C35.4849 5.47377 35.5391 5.03409 35.6476 4.64283C35.7599 4.2477 35.9207 3.91068 36.1299 3.63176C36.3391 3.34897 36.5928 3.13397 36.8911 2.98677C37.1933 2.83569 37.5341 2.76015 37.9138 2.76015C38.2779 2.76015 38.6014 2.82019 38.8842 2.94028C39.167 3.06037 39.411 3.23276 39.6163 3.45744C39.8217 3.68212 39.9863 3.94942 40.1103 4.25932C40.2381 4.56923 40.3311 4.914 40.3892 5.29364V6.84511C40.3427 7.2015 40.2575 7.52884 40.1335 7.82713C40.0095 8.12154 39.8449 8.37915 39.6396 8.59996C39.4343 8.81689 39.1863 8.9854 38.8958 9.10549C38.6091 9.22171 38.2779 9.27982 37.9022 9.27982C37.5264 9.27982 37.1894 9.20234 36.8911 9.04739C36.5928 8.89243 36.3391 8.67356 36.1299 8.39077C35.9207 8.10411 35.7599 7.76515 35.6476 7.37389C35.5391 6.98263 35.4849 6.55264 35.4849 6.0839ZM36.1822 5.96188V6.0839C36.1822 6.45192 36.219 6.79281 36.2926 7.10659C36.3662 7.42038 36.4785 7.69348 36.6296 7.92591C36.7807 8.15834 36.9724 8.34041 37.2049 8.47212C37.4373 8.60383 37.7104 8.66969 38.0242 8.66969C38.4232 8.66969 38.7583 8.59415 39.0295 8.44307C39.3006 8.28811 39.5156 8.08474 39.6744 7.83294C39.8333 7.57727 39.9495 7.29835 40.0231 6.99619V5.18904C39.9805 4.98373 39.9146 4.77454 39.8255 4.56148C39.7403 4.34842 39.6202 4.15279 39.4653 3.9746C39.3142 3.79253 39.1205 3.64726 38.8842 3.53879C38.6518 3.42645 38.369 3.37028 38.0358 3.37028C37.7182 3.37028 37.4412 3.43613 37.2049 3.56784C36.9724 3.69955 36.7807 3.88356 36.6296 4.11987C36.4785 4.3523 36.3662 4.6254 36.2926 4.93918C36.219 5.25296 36.1822 5.59386 36.1822 5.96188Z" fill="white"/>
<path d="M29.6744 4.21865V9.1636H28.9829V2.87636H29.6453L29.6744 4.21865ZM29.5175 5.63066L29.2095 5.45634C29.2327 5.08445 29.3083 4.73581 29.4361 4.4104C29.564 4.085 29.7363 3.79834 29.9533 3.55041C30.1741 3.30249 30.4317 3.10879 30.7261 2.96934C31.0244 2.82988 31.3537 2.76015 31.7139 2.76015C32.0277 2.76015 32.3086 2.80276 32.5565 2.88799C32.8044 2.97321 33.0156 3.10879 33.1899 3.29474C33.3642 3.48068 33.4959 3.71892 33.585 4.00946C33.678 4.3 33.7245 4.65446 33.7245 5.07283V9.1636H33.0272V5.06702C33.0272 4.63315 32.9671 4.29419 32.847 4.05014C32.727 3.80221 32.5565 3.62595 32.3357 3.52136C32.1149 3.41676 31.8534 3.36447 31.5512 3.36447C31.2181 3.36447 30.9256 3.43807 30.6738 3.58528C30.4259 3.72861 30.2167 3.91649 30.0463 4.14892C29.8797 4.37748 29.7518 4.62347 29.6627 4.88689C29.5736 5.14643 29.5252 5.39436 29.5175 5.63066Z" fill="white"/>
<path d="M26.8448 2.87636V9.1636H26.1533V2.87636H26.8448ZM26.0313 1.0576C26.0313 0.925887 26.0719 0.815483 26.1533 0.726385C26.2385 0.633413 26.3547 0.586927 26.5019 0.586927C26.6491 0.586927 26.7654 0.633413 26.8506 0.726385C26.9397 0.815483 26.9842 0.925887 26.9842 1.0576C26.9842 1.18543 26.9397 1.29584 26.8506 1.38881C26.7654 1.47791 26.6491 1.52246 26.5019 1.52246C26.3547 1.52246 26.2385 1.47791 26.1533 1.38881C26.0719 1.29584 26.0313 1.18543 26.0313 1.0576Z" fill="white"/>
<path d="M24.3754 2.87636V3.44582H21.226V2.87636H24.3754ZM22.3823 1.26097H23.0738V7.63537C23.0738 7.92591 23.1126 8.14478 23.19 8.29199C23.2675 8.43919 23.3682 8.53798 23.4922 8.58834C23.6161 8.6387 23.7498 8.66388 23.8931 8.66388C23.9977 8.66388 24.0984 8.65807 24.1953 8.64644C24.2921 8.63095 24.3793 8.61545 24.4568 8.59996L24.4858 9.18684C24.4006 9.21396 24.2902 9.23527 24.1546 9.25076C24.019 9.27013 23.8834 9.27982 23.7479 9.27982C23.4806 9.27982 23.2443 9.23139 23.0389 9.13455C22.8336 9.03383 22.6729 8.86338 22.5567 8.6232C22.4404 8.37915 22.3823 8.04794 22.3823 7.62956V1.26097Z" fill="white"/>
<path d="M19.4946 7.55983C19.4946 7.38938 19.452 7.22087 19.3668 7.0543C19.2816 6.88772 19.1169 6.73471 18.8729 6.59525C18.6327 6.45579 18.2782 6.33764 17.8095 6.24079C17.4609 6.16332 17.149 6.07615 16.874 5.97931C16.6028 5.88246 16.3742 5.76625 16.1883 5.63066C16.0024 5.49508 15.861 5.33238 15.7641 5.14256C15.6673 4.95274 15.6188 4.72806 15.6188 4.46851C15.6188 4.23608 15.6692 4.01721 15.7699 3.8119C15.8745 3.60271 16.0217 3.42064 16.2115 3.26568C16.4052 3.10686 16.6377 2.98289 16.9088 2.8938C17.1839 2.8047 17.4918 2.76015 17.8327 2.76015C18.317 2.76015 18.7315 2.84344 19.0762 3.01001C19.4249 3.17271 19.6902 3.39546 19.8723 3.67825C20.0583 3.96104 20.1512 4.28063 20.1512 4.63702H19.4598C19.4598 4.42009 19.3958 4.21478 19.268 4.02108C19.144 3.82739 18.96 3.66856 18.716 3.5446C18.4758 3.42064 18.1814 3.35866 17.8327 3.35866C17.4725 3.35866 17.18 3.41289 16.9553 3.52136C16.7306 3.62983 16.566 3.76735 16.4614 3.93392C16.3607 4.1005 16.3103 4.27288 16.3103 4.45108C16.3103 4.59054 16.3316 4.71837 16.3742 4.83459C16.4207 4.94693 16.5021 5.05152 16.6183 5.14837C16.7384 5.24522 16.9088 5.33625 17.1296 5.42148C17.3505 5.5067 17.6371 5.58999 17.9896 5.67134C18.4971 5.78368 18.9116 5.9212 19.2331 6.0839C19.5585 6.24273 19.7987 6.44029 19.9537 6.6766C20.1086 6.90903 20.1861 7.19182 20.1861 7.52497C20.1861 7.78452 20.1319 8.02276 20.0234 8.23969C19.9149 8.45275 19.758 8.63676 19.5527 8.79171C19.3513 8.94667 19.1072 9.06676 18.8206 9.15198C18.5378 9.2372 18.2201 9.27982 17.8676 9.27982C17.3369 9.27982 16.8875 9.19266 16.5195 9.01833C16.1554 8.84014 15.8784 8.60771 15.6886 8.32104C15.5026 8.0305 15.4097 7.72253 15.4097 7.39713H16.1011C16.1244 7.72253 16.227 7.98014 16.4091 8.16996C16.5912 8.35591 16.8139 8.48762 17.0773 8.56509C17.3446 8.64257 17.6081 8.68131 17.8676 8.68131C18.224 8.68131 18.5223 8.62901 18.7625 8.52442C19.0026 8.41983 19.1847 8.2823 19.3087 8.11186C19.4326 7.94141 19.4946 7.7574 19.4946 7.55983Z" fill="white"/>
<path d="M8.43699 6.11877V5.92701C8.43699 5.4699 8.50284 5.04765 8.63455 4.66027C8.76626 4.27288 8.95414 3.9378 9.19819 3.65501C9.44612 3.37222 9.74247 3.15334 10.0872 2.99839C10.432 2.83956 10.8155 2.76015 11.2378 2.76015C11.6639 2.76015 12.0493 2.83956 12.3941 2.99839C12.7389 3.15334 13.0352 3.37222 13.2832 3.65501C13.5311 3.9378 13.7209 4.27288 13.8526 4.66027C13.9843 5.04765 14.0502 5.4699 14.0502 5.92701V6.11877C14.0502 6.57588 13.9843 6.99813 13.8526 7.38551C13.7209 7.76902 13.5311 8.10217 13.2832 8.38496C13.0391 8.66775 12.7447 8.88856 12.3999 9.04739C12.0551 9.20234 11.6716 9.27982 11.2494 9.27982C10.8233 9.27982 10.4378 9.20234 10.0931 9.04739C9.74828 8.88856 9.45193 8.66775 9.204 8.38496C8.95608 8.10217 8.76626 7.76902 8.63455 7.38551C8.50284 6.99813 8.43699 6.57588 8.43699 6.11877ZM9.12846 5.92701V6.11877C9.12846 6.46354 9.17495 6.79088 9.26792 7.10078C9.3609 7.40682 9.49648 7.67992 9.67468 7.9201C9.85287 8.1564 10.0737 8.34235 10.3371 8.47793C10.6005 8.61352 10.9046 8.68131 11.2494 8.68131C11.5903 8.68131 11.8905 8.61352 12.1501 8.47793C12.4135 8.34235 12.6343 8.1564 12.8125 7.9201C12.9907 7.67992 13.1243 7.40682 13.2134 7.10078C13.3064 6.79088 13.3529 6.46354 13.3529 6.11877V5.92701C13.3529 5.58611 13.3064 5.26265 13.2134 4.95661C13.1243 4.65058 12.9887 4.37748 12.8067 4.1373C12.6285 3.89712 12.4077 3.7073 12.1442 3.56784C11.8808 3.42839 11.5787 3.35866 11.2378 3.35866C10.8969 3.35866 10.5947 3.42839 10.3313 3.56784C10.0717 3.7073 9.85093 3.89712 9.66887 4.1373C9.49067 4.37748 9.35508 4.65058 9.26211 4.95661C9.17301 5.26265 9.12846 5.58611 9.12846 5.92701Z" fill="white"/>
<path d="M6.00832 4.49757V5.10769H0.865803V4.49757H6.00832ZM1.03431 0.703142V9.1636H0.319592V0.703142H1.03431ZM6.58359 0.703142V9.1636H5.86886V0.703142H6.58359Z" fill="white"/>
</svg>
