<svg width="16" height="16" viewBox="0 0 16 16" fill="none" xmlns="http://www.w3.org/2000/svg">
<path d="M5.83333 2.45422V4.45422C5.83333 4.80785 5.69286 5.14698 5.44281 5.39703C5.19276 5.64708 4.85362 5.78756 4.5 5.78756H2.5M14.5 5.78756H12.5C12.1464 5.78756 11.8072 5.64708 11.5572 5.39703C11.3071 5.14698 11.1667 4.80785 11.1667 4.45422V2.45422M11.1667 14.4542V12.4542C11.1667 12.1006 11.3071 11.7615 11.5572 11.5114C11.8072 11.2614 12.1464 11.1209 12.5 11.1209H14.5M2.5 11.1209H4.5C4.85362 11.1209 5.19276 11.2614 5.44281 11.5114C5.69286 11.7615 5.83333 12.1006 5.83333 12.4542V14.4542" stroke="#43423E" stroke-width="1.36364" stroke-linecap="round" stroke-linejoin="round"/>
</svg>