<svg width="72" height="21" viewBox="0 0 72 21" fill="none" xmlns="http://www.w3.org/2000/svg">
<g clip-path="url(#clip0_1_9969)">
<path d="M9.98156 0.555664C12.7788 0.555664 15.1603 1.53223 17.1244 3.48441C18.0644 4.42473 18.7791 5.49941 19.2672 6.70754C19.755 7.91598 19.9997 9.19848 19.9997 10.5557C19.9997 11.9247 19.7581 13.2075 19.2766 14.4035C18.7944 15.5997 18.0828 16.6566 17.1428 17.5732C16.1669 18.5372 15.0597 19.2757 13.8212 19.7875C12.5834 20.2994 11.3034 20.5554 9.98219 20.5554C8.66094 20.5554 7.39594 20.3029 6.1875 19.7963C4.97937 19.2907 3.89594 18.5585 2.9375 17.6004C1.97906 16.6422 1.25 15.5616 0.75 14.3591C0.25 13.1566 0 11.8891 0 10.5557C0 9.2341 0.252813 7.96348 0.75875 6.74316C1.26469 5.52285 2 4.43066 2.96406 3.46629C4.86875 1.52629 7.20781 0.555664 9.98156 0.555664ZM10.0178 2.35941C7.73219 2.35941 5.80938 3.15723 4.24969 4.75223C3.46375 5.55004 2.85969 6.44566 2.43719 7.43973C2.01406 8.43379 1.80313 9.47254 1.80313 10.556C1.80313 11.6275 2.01406 12.6604 2.43719 13.6538C2.86 14.6485 3.46375 15.5354 4.24969 16.315C5.03531 17.095 5.92188 17.6897 6.91062 18.101C7.89844 18.5116 8.93437 18.7169 10.0178 18.7169C11.0891 18.7169 12.1272 18.5091 13.1344 18.0922C14.1403 17.675 15.0472 17.0744 15.8572 16.2888C17.4166 14.765 18.1959 12.8544 18.1959 10.5563C18.1959 9.4491 17.9934 8.4016 17.5888 7.41348C17.1847 6.42535 16.595 5.54473 15.8219 4.77035C14.2138 3.16316 12.2797 2.35941 10.0178 2.35941ZM9.8925 8.89535L8.55281 9.59191C8.40969 9.29473 8.23438 9.08598 8.02625 8.96691C7.81781 8.84816 7.62437 8.78848 7.44563 8.78848C6.55312 8.78848 6.10625 9.37754 6.10625 10.5563C6.10625 11.0919 6.21938 11.52 6.44531 11.8416C6.67156 12.1632 7.005 12.3241 7.44563 12.3241C8.02906 12.3241 8.43969 12.0382 8.67813 11.4669L9.91 12.0919C9.64813 12.5804 9.285 12.9641 8.82063 13.2438C8.35688 13.5238 7.84469 13.6635 7.285 13.6635C6.39219 13.6635 5.67156 13.39 5.12406 12.8419C4.57656 12.2944 4.30281 11.5325 4.30281 10.5566C4.30281 9.6041 4.57969 8.84848 5.13313 8.28879C5.68656 7.72941 6.38594 7.44941 7.23156 7.44941C8.47 7.44879 9.35656 7.93098 9.8925 8.89535ZM15.6603 8.89535L14.3387 9.59191C14.1959 9.29473 14.02 9.08598 13.8119 8.96691C13.6031 8.84816 13.4034 8.78848 13.2137 8.78848C12.3209 8.78848 11.8741 9.37754 11.8741 10.5563C11.8741 11.0919 11.9875 11.52 12.2134 11.8416C12.4394 12.1632 12.7725 12.3241 13.2137 12.3241C13.7966 12.3241 14.2075 12.0382 14.4453 11.4669L15.6953 12.0919C15.4219 12.5804 15.0525 12.9641 14.5887 13.2438C14.1244 13.5238 13.6184 13.6635 13.0709 13.6635C12.1659 13.6635 11.4431 13.39 10.9019 12.8419C10.3594 12.2944 10.0887 11.5325 10.0887 10.5566C10.0887 9.6041 10.3653 8.84848 10.9194 8.28879C11.4725 7.72941 12.1719 7.44941 13.0172 7.44941C14.2553 7.44879 15.1369 7.93098 15.6603 8.89535Z" fill="white"/>
</g>
<g clip-path="url(#clip1_1_9969)">
<path d="M35.9822 0.555664C38.7909 0.555664 41.1603 1.51973 43.0891 3.44848C45.0291 5.3891 46 7.75816 46 10.5557C46 13.3654 45.0472 15.7044 43.1422 17.5732C41.1184 19.5616 38.7319 20.5557 35.9822 20.5557C33.2794 20.5557 30.9344 19.5732 28.9466 17.6088C26.9825 15.6444 26 13.2938 26 10.5557C26 7.81785 26.9825 5.44879 28.9466 3.44879C30.8753 1.51973 33.22 0.555664 35.9822 0.555664ZM36.0178 2.35941C33.7441 2.35941 31.8216 3.15723 30.25 4.75223C28.6188 6.4191 27.8034 8.35379 27.8034 10.556C27.8034 12.7704 28.6128 14.6872 30.2316 16.3054C31.8506 17.9247 33.7791 18.7338 36.0172 18.7338C38.2431 18.7338 40.1841 17.9191 41.8387 16.2875C43.4103 14.7757 44.1959 12.865 44.1959 10.5554C44.1959 8.2816 43.3981 6.34754 41.8034 4.75191C40.2084 3.15691 38.2797 2.35941 36.0178 2.35941ZM38.6966 8.07348V12.1625H37.5541V17.0194H34.4466V12.1629H33.3041V8.07348C33.3041 7.89473 33.3666 7.74316 33.4913 7.61816C33.6166 7.49348 33.7684 7.43066 33.9466 7.43066H38.0541C38.2206 7.43066 38.3697 7.49316 38.5003 7.61816C38.6306 7.74316 38.6966 7.89504 38.6966 8.07348ZM34.6069 5.50223C34.6069 4.56223 35.0709 4.0916 36 4.0916C36.9291 4.0916 37.3928 4.5616 37.3928 5.50223C37.3928 6.43066 36.9284 6.89504 36 6.89504C35.0716 6.89504 34.6069 6.43066 34.6069 5.50223Z" fill="white"/>
</g>
<g clip-path="url(#clip2_1_9969)">
<path d="M61.9819 0.555664C64.7913 0.555664 67.1603 1.51973 69.0891 3.44816C71.0291 5.37691 72 7.74598 72 10.5557C72 13.3657 71.0475 15.7044 69.1422 17.5738C67.1187 19.5619 64.7316 20.5557 61.9819 20.5557C59.2675 20.5557 56.9225 19.5675 54.9466 17.5916C52.9825 15.6269 52 13.2822 52 10.5557C52 7.81754 52.9825 5.44848 54.9466 3.44848C56.875 1.52004 59.22 0.555664 61.9819 0.555664ZM54.25 7.85941C53.9525 8.68066 53.8034 9.57973 53.8034 10.556C53.8034 12.7704 54.6128 14.6872 56.2316 16.306C57.8625 17.9135 59.7913 18.7169 62.0172 18.7169C64.2675 18.7169 66.2075 17.9019 67.8391 16.2704C68.4225 15.711 68.8803 15.1275 69.2134 14.5197L65.4459 12.8413C65.3144 13.4725 64.9963 13.9872 64.4906 14.3857C63.9838 14.7844 63.3859 15.0141 62.6956 15.0732V16.6091H61.535V15.0732C60.4278 15.0619 59.4156 14.6632 58.4994 13.8772L59.8744 12.4844C60.5288 13.0913 61.2731 13.3947 62.1066 13.3947C62.4516 13.3947 62.7466 13.3179 62.9909 13.1625C63.2347 13.0082 63.3572 12.7525 63.3572 12.3947C63.3572 12.1444 63.2675 11.9422 63.0891 11.7875L62.125 11.3766L60.9466 10.8407L59.3572 10.1441L54.25 7.85941ZM62.0178 2.34129C59.7441 2.34129 57.8216 3.14473 56.25 4.75191C55.8569 5.14504 55.4878 5.59129 55.1428 6.0916L58.9644 7.80566C59.1309 7.28191 59.4462 6.86223 59.9109 6.54691C60.3747 6.2316 60.9166 6.05598 61.5359 6.02004V4.4841H62.6969V6.02004C63.6137 6.06785 64.4469 6.37723 65.1969 6.94848L63.8931 8.28785C63.3328 7.89504 62.7622 7.69879 62.1787 7.69879C61.8691 7.69879 61.5925 7.75848 61.3488 7.87723C61.1047 7.99629 60.9825 8.19879 60.9825 8.48441C60.9825 8.56785 61.0122 8.65098 61.0716 8.73441L62.3394 9.30629L63.2144 9.6991L64.8219 10.4132L69.9459 12.6988C70.1131 11.9963 70.1963 11.2822 70.1963 10.556C70.1963 8.25816 69.3988 6.32379 67.8037 4.75191C66.2203 3.14473 64.2909 2.34129 62.0178 2.34129Z" fill="white"/>
</g>
<defs>
<clipPath id="clip0_1_9969">
<rect width="20" height="20" fill="white" transform="translate(0 0.555664)"/>
</clipPath>
<clipPath id="clip1_1_9969">
<rect width="20" height="20" fill="white" transform="translate(26 0.555664)"/>
</clipPath>
<clipPath id="clip2_1_9969">
<rect width="20" height="20" fill="white" transform="translate(52 0.555664)"/>
</clipPath>
</defs>
</svg>