<svg width="14" height="14" viewBox="0 0 16 14" fill="none" xmlns="http://www.w3.org/2000/svg">
<path d="M12.8333 7H9.33334L8.16667 8.75H5.83334L4.66667 7H1.16667" stroke="#43423E" stroke-linecap="round" stroke-linejoin="round"/>
<path d="M3.17917 2.98084L1.16667 7.00001V10.5C1.16667 10.8094 1.28959 11.1062 1.50838 11.325C1.72717 11.5438 2.02392 11.6667 2.33334 11.6667H11.6667C11.9761 11.6667 12.2728 11.5438 12.4916 11.325C12.7104 11.1062 12.8333 10.8094 12.8333 10.5V7.00001L10.8208 2.98084C10.7243 2.78647 10.5754 2.62289 10.3909 2.50851C10.2064 2.39412 9.99372 2.33346 9.77667 2.33334H4.22334C4.00629 2.33346 3.79358 2.39412 3.60911 2.50851C3.42465 2.62289 3.27576 2.78647 3.17917 2.98084V2.98084Z" stroke="#43423E" stroke-linecap="round" stroke-linejoin="round"/>
</svg>
