<svg width="180" height="43" viewBox="0 0 180 43" fill="none" xmlns="http://www.w3.org/2000/svg">
<path d="M122.927 26.3337L122.487 26.0799C122.366 26.0101 122.238 25.9467 122.11 25.8833C121.862 25.7627 121.6 25.6422 121.325 25.5344C120.1 25.0459 118.721 24.7605 117.228 24.6843V22.9272C118.683 22.7178 120.221 22.5592 121.913 22.4387L123.176 22.3626C123.578 22.3436 124.064 22.3182 124.606 22.3055L127.248 22.2357L127.057 22.1215C127.057 22.1215 127.038 22.1215 127.006 22.1025L124 21.354L122.704 21.0431L121.74 20.8274C120.419 20.5356 119.002 20.2565 117.228 19.9393V14.8011C117.56 14.6488 117.904 14.4839 118.236 14.2809C118.466 14.1413 118.664 13.9954 118.836 13.8305C119.072 13.6021 119.232 13.3801 119.321 13.139C119.385 12.9805 119.417 12.7838 119.411 12.6125C119.411 12.4666 119.392 12.308 119.36 12.1494C119.296 11.8513 119.162 11.5531 118.964 11.2867C118.638 10.8617 118.185 10.5382 117.541 10.2717C117.438 10.2273 117.336 10.1893 117.228 10.1512V7.3537C117.387 7.24586 117.547 7.14437 117.7 7.04287L118.543 6.5227L118.689 6.43389C118.734 6.4212 118.753 6.38948 118.76 6.37045C118.76 6.35776 118.76 6.32605 118.74 6.29433L118.626 6.09768C118.543 5.95812 118.466 5.8249 118.358 5.69169L118.224 5.54579C118.185 5.50773 118.153 5.47601 118.115 5.44429C117.975 5.31742 117.821 5.20958 117.636 5.10808C117.509 5.0383 117.375 4.96852 117.228 4.91143V0.864233L117.196 0.845203C117.164 0.826172 117.138 0.832515 117.049 0.870577L116.979 0.851546L116.858 0.826172H116.315V0.87692C116.29 1.01014 116.27 1.21313 116.251 1.40978C116.239 1.55568 116.226 1.69524 116.213 1.79674C116.156 2.14563 116.105 2.41206 116.041 2.63409C115.99 2.83708 115.932 3.0147 115.868 3.18598C115.811 3.34457 115.747 3.47778 115.67 3.63637C115.639 3.69981 115.6 3.76324 115.562 3.82668C115.524 3.89012 115.485 3.94721 115.447 4.0043L115.332 4.1502C115.332 4.1502 115.307 4.18192 115.288 4.19461C115.173 4.32148 115.045 4.42932 114.885 4.53082L113.022 5.46332L113.271 5.47601H113.437L113.96 5.45063C114.107 5.44429 114.26 5.43795 114.407 5.42526C114.688 5.40623 114.956 5.39354 115.185 5.3872C115.351 5.3872 115.517 5.39354 115.69 5.41257L115.996 5.44429C116.105 5.46332 116.219 5.48235 116.322 5.50138V6.94137C116.066 7.11265 115.824 7.28393 115.588 7.4552C115.071 7.82947 114.528 8.24181 114.005 8.73026C113.851 8.86982 113.737 8.99669 113.622 9.12356L113.52 9.24409C113.52 9.24409 113.488 9.28215 113.475 9.30752C113.437 9.35827 113.398 9.40268 113.373 9.44708C113.277 9.59299 113.207 9.73889 113.169 9.8721C113.149 9.95457 113.13 10.037 113.117 10.1195C113.117 10.1639 113.098 10.2147 113.092 10.2654L113.054 10.4367L113.092 10.4938L113.43 10.4811C113.743 10.4684 114.164 10.4811 114.285 10.4811C115 10.5128 115.639 10.5889 116.226 10.7221C116.258 10.7285 116.29 10.7348 116.322 10.7412V14.2682C116.111 14.357 115.9 14.4395 115.69 14.5283C115.198 14.7249 114.694 14.9343 114.196 15.1626C113.564 15.4671 112.849 15.816 112.288 16.4694C111.988 16.8247 111.809 17.2814 111.809 17.7001C111.809 18.068 111.809 18.4994 112.02 18.9307C112.115 19.1337 112.269 19.3304 112.447 19.4826C112.6 19.6095 112.773 19.7237 112.996 19.8252C113.379 20.0028 113.756 20.1043 114.088 20.1867C114.713 20.339 115.332 20.4468 115.932 20.5547L116.194 20.5991C116.232 20.6054 116.277 20.6118 116.315 20.6181V22.2103C114.911 22.4324 113.111 22.7686 111.356 23.3649C110.679 23.5996 109.792 23.9358 108.975 24.475C108.541 24.7605 108.209 25.0586 107.948 25.3821C107.877 25.4709 107.807 25.5661 107.737 25.6739C107.705 25.7247 107.673 25.7754 107.648 25.8325C107.635 25.8579 107.616 25.8896 107.603 25.915L107.577 25.9657C107.577 25.9657 107.558 26.0038 107.552 26.0228C107.475 26.2005 107.424 26.3844 107.386 26.6001C107.367 26.7333 107.36 26.8602 107.354 26.9934L107.329 27.374V27.4628L107.399 27.5009L107.763 27.3423C107.922 27.2725 108.082 27.2027 108.235 27.1456L108.682 26.9744L108.962 26.8729C109.326 26.746 109.709 26.6191 110.092 26.4986C110.852 26.2702 111.618 26.0799 112.371 25.9277C113.743 25.6486 115.064 25.509 116.309 25.5027V27.2218C115.977 27.2979 115.658 27.3804 115.345 27.4819C114.917 27.6151 114.502 27.7927 114.158 27.9703L113.89 28.1226C113.781 28.1923 113.698 28.2431 113.654 28.2748L113.59 28.2558V28.3192C113.303 28.5476 113.105 28.7696 112.996 28.9092C112.811 29.1312 112.639 29.423 112.549 29.6767C112.466 29.8861 112.447 29.9939 112.441 30.051C112.358 30.4633 112.409 30.8566 112.511 30.9518C112.549 30.9898 112.588 30.9835 112.607 30.9835C112.658 30.9708 112.696 30.9201 112.735 30.8122C112.747 30.7742 112.766 30.7234 112.779 30.6727C112.811 30.5585 112.862 30.4062 112.939 30.2223C113.066 29.9305 113.303 29.6196 113.545 29.404C113.743 29.22 113.928 29.1058 114.005 29.0551L114.049 29.0233C114.049 29.0233 114.151 28.9472 114.273 28.8711L114.4 28.795L114.751 28.611C115.198 28.4017 115.709 28.2304 116.296 28.0845V41.6026L116.283 42.643C116.283 42.6747 116.309 42.6937 116.341 42.7255C116.462 42.8777 116.602 42.9538 116.743 42.9538H116.768C116.941 42.9411 117.075 42.8206 117.138 42.7191C117.138 42.7191 117.151 42.7191 117.158 42.7128C117.177 42.7001 117.228 42.681 117.228 42.6303V27.9005C117.228 27.9005 117.292 27.8878 117.324 27.8878C118.192 27.7546 119.13 27.6722 120.208 27.6531C120.7 27.6404 121.211 27.6531 121.721 27.6531L122.64 27.6912C122.94 27.7102 123.195 27.7293 123.438 27.7483L124.746 27.8815H124.778C124.823 27.8815 124.855 27.8815 124.88 27.8815L124.963 27.8307L124.146 27.1901C123.795 26.9109 123.413 26.6191 122.94 26.3273H122.934L122.927 26.3337ZM117.598 6.09768L117.234 6.32605V5.81856C117.355 5.88834 117.464 5.96446 117.56 6.05327C117.572 6.06596 117.585 6.07865 117.598 6.09133V6.09768ZM116.29 4.22633L116.309 4.19461V4.63866C116.232 4.62597 116.149 4.61328 116.073 4.6006H116.041C116.13 4.48007 116.213 4.35954 116.296 4.22633H116.29ZM114.573 9.3329C115.109 8.8381 115.702 8.38771 116.309 7.95634V9.88479C115.696 9.75157 115.039 9.67545 114.305 9.64373H114.266C114.356 9.54224 114.451 9.44074 114.573 9.3329ZM118.287 11.7815C118.415 11.9464 118.498 12.1241 118.536 12.308C118.562 12.4159 118.568 12.511 118.568 12.6062C118.568 12.695 118.568 12.7521 118.53 12.8345C118.447 13.0629 118.192 13.3103 117.789 13.5577C117.611 13.6656 117.419 13.7734 117.228 13.8622V11.033C117.707 11.236 118.064 11.4834 118.287 11.7752V11.7815ZM112.773 18.5691C112.677 18.3788 112.639 18.0997 112.645 17.7191C112.645 17.4717 112.741 17.237 112.932 17.0086C113.322 16.5519 113.941 16.2157 114.547 15.9302C115.013 15.7145 115.485 15.5179 115.99 15.3149C116.098 15.2705 116.207 15.2261 116.309 15.1817V19.7744L116.105 19.7364C115.498 19.6285 114.873 19.5143 114.279 19.3748C113.609 19.2098 112.964 18.9942 112.773 18.5691ZM122.11 26.8285C121.632 26.8094 121.159 26.8031 120.694 26.8031C119.353 26.8158 118.224 26.8919 117.228 27.0505V25.528C118.613 25.6042 119.889 25.8706 121.013 26.3146C121.396 26.4669 121.759 26.6382 122.11 26.8285ZM117.228 22.0771V20.783C118.887 21.0812 120.234 21.3476 121.485 21.6267C119.966 21.7409 118.562 21.8932 117.228 22.0771ZM112.115 25.1157C111.337 25.2743 110.539 25.4773 109.754 25.7183C109.358 25.8389 108.962 25.9721 108.58 26.1053L108.42 26.1624C108.49 26.0419 108.567 25.934 108.662 25.8262C108.879 25.5788 109.167 25.3377 109.524 25.1094C110.105 24.7414 110.807 24.4306 111.726 24.1198C113.015 23.6884 114.445 23.3585 116.309 23.0604V24.6526C114.988 24.6526 113.577 24.8112 112.115 25.1094V25.1157Z" fill="#8C1515"/>
<path d="M0 24.9378L0.970144 23.796C1.85732 24.5636 2.71896 24.9759 3.86143 24.9759C4.8571 24.9759 5.48259 24.5065 5.48259 23.834V23.8087C5.48259 23.1743 5.11879 22.7937 3.41465 22.4194C1.46798 21.9627 0.370187 21.3664 0.370187 19.7044V19.679C0.370187 18.1185 1.6786 17.0401 3.49762 17.0401C4.84434 17.0401 5.87831 17.4397 6.81654 18.1819L5.9549 19.3872C5.11879 18.7782 4.30821 18.4547 3.47209 18.4547C2.53386 18.4547 1.98497 18.9241 1.98497 19.5331V19.5585C1.98497 20.2626 2.40621 20.5734 4.16779 20.9858C6.08893 21.4806 7.09737 22.1276 7.09737 23.6501V23.6755C7.09737 25.3882 5.75066 26.3905 3.82952 26.3905C2.41898 26.3905 1.11056 25.9211 0.0127651 24.9378H0Z" fill="#43423E"/>
<path d="M13.5692 18.6515H10.6524V17.1734H18.0881V18.6515H15.1713V26.2638H13.5629V18.6515H13.5692Z" fill="#43423E"/>
<path d="M24.3812 17.1038H25.8747L29.9021 26.2639H28.2044L27.2789 24.069H22.9515L22.0133 26.2639H20.3666L24.394 17.1038H24.3812ZM26.6789 22.6544L25.0961 19.0132L23.526 22.6544H26.6789Z" fill="#43423E"/>
<path d="M35.4868 17.1734L40.3886 23.4599V17.1734H41.9715V26.2701H40.6248L35.5762 19.7997V26.2701H33.9933V17.1734H35.4868Z" fill="#43423E"/>
<path d="M46.8669 17.1737H53.677V18.6264H48.4753V21.1067H53.0898V22.5594H48.4753V26.264H46.8669V17.1673V17.1737Z" fill="#43423E"/>
<path d="M57.4938 21.7471V21.7217C57.4938 19.178 59.4787 17.0211 62.2934 17.0211C65.1081 17.0211 67.0676 19.1399 67.0676 21.6964V21.7217C67.0676 24.2655 65.0826 26.4223 62.2679 26.4223C59.4532 26.4223 57.4938 24.3036 57.4938 21.7471ZM65.3762 21.7471V21.7217C65.3762 19.9519 64.0933 18.4992 62.2679 18.4992C60.4425 18.4992 59.1851 19.9265 59.1851 21.6964V21.7217C59.1851 23.4916 60.468 24.9443 62.2934 24.9443C64.1188 24.9443 65.3762 23.517 65.3762 21.7471Z" fill="#43423E"/>
<path d="M71.5417 17.1737H75.6202C76.769 17.1737 77.6753 17.5099 78.2625 18.0808C78.7476 18.5883 79.022 19.248 79.022 20.041V20.0664C79.022 21.5634 78.1221 22.4579 76.852 22.8195L79.322 26.264H77.4137L75.167 23.0922H73.1565V26.264H71.5481V17.1673H71.5417V17.1737ZM75.5053 21.6776C76.6541 21.6776 77.3881 21.094 77.3881 20.1552V20.1298C77.3881 19.1402 76.6924 18.62 75.4925 18.62H73.1501V21.6713H75.5053V21.6776Z" fill="#43423E"/>
<path d="M83.5345 17.1734H86.9492C89.8277 17.1734 91.8127 19.1336 91.8127 21.6964V21.7218C91.8127 24.2846 89.8277 26.2701 86.9492 26.2701H83.5345V17.1734ZM85.1429 18.6261V24.8111H86.9492C88.8703 24.8111 90.1277 23.5233 90.1277 21.7471V21.7218C90.1277 19.9392 88.8703 18.6261 86.9492 18.6261H85.1429Z" fill="#43423E"/>
<path d="M0.472279 32.7661H2.08068V37.9361C2.08068 39.6362 2.94232 40.5243 4.39753 40.5243C5.85275 40.5243 6.69524 39.6806 6.69524 38.0059V32.7724H8.30364V37.9297C8.30364 40.6448 6.75907 42.0087 4.36562 42.0087C1.97217 42.0087 0.472279 40.6448 0.472279 38.0059V32.7661Z" fill="#43423E"/>
<path d="M14.533 32.76L19.4348 39.0465V32.76H21.0177V41.8567H19.671L14.6224 35.3862V41.8567H13.0395V32.76H14.533Z" fill="#43423E"/>
<path d="M26.0024 32.76H27.6108V41.8567H26.0024V32.76Z" fill="#43423E"/>
<path d="M31.8041 32.76H33.5849L36.3421 39.7506L39.0866 32.76H40.8227L37.0314 41.9201H35.5954L31.8041 32.76Z" fill="#43423E"/>
<path d="M44.9266 32.7599H51.7112V34.1872H46.535V36.5534H51.1241V37.9934H46.535V40.4229H51.7751V41.8502H44.9266V32.7536V32.7599Z" fill="#43423E"/>
<path d="M56.2237 32.7599H60.3022C61.451 32.7599 62.3573 33.0961 62.9445 33.667C63.4296 34.1745 63.704 34.8343 63.704 35.6272V35.6526C63.704 37.1497 62.8041 38.0441 61.534 38.4057L64.004 41.8502H62.0956L59.849 38.6785H57.8385V41.8502H56.2301V32.7536H56.2237V32.7599ZM60.1873 37.2702C61.3361 37.2702 62.0701 36.6866 62.0701 35.7477V35.7224C62.0701 34.7328 61.3744 34.2126 60.1745 34.2126H57.8321V37.2638H60.1873V37.2702Z" fill="#43423E"/>
<path d="M67.5973 40.5305L68.5675 39.3886C69.4546 40.1562 70.3163 40.5685 71.4588 40.5685C72.4544 40.5685 73.0799 40.0991 73.0799 39.4267V39.4013C73.0799 38.7669 72.7161 38.3863 71.012 38.0121C69.0653 37.5553 67.9675 36.959 67.9675 35.297V35.2716C67.9675 33.7111 69.2759 32.6327 71.0949 32.6327C72.4417 32.6327 73.4756 33.0324 74.4139 33.7746L73.5522 34.9798C72.7161 34.3709 71.9055 34.0473 71.0694 34.0473C70.1312 34.0473 69.5823 34.5168 69.5823 35.1257V35.1511C69.5823 35.8552 70.0035 36.1661 71.7651 36.5784C73.6863 37.0732 74.6947 37.7203 74.6947 39.2427V39.2681C74.6947 40.9808 73.348 41.9831 71.4268 41.9831C70.0163 41.9831 68.7079 41.5137 67.6101 40.5305H67.5973Z" fill="#43423E"/>
<path d="M79.2071 32.76H80.8155V41.8567H79.2071V32.76Z" fill="#43423E"/>
<path d="M88.0278 34.2441H85.111V32.7661H92.5466V34.2441H89.6298V41.8564H88.0214V34.2441H88.0278Z" fill="#43423E"/>
<path d="M99.4525 38.2723L95.8209 32.7661H97.7292L100.276 36.7816L102.867 32.7661H104.712L101.08 38.2342V41.8564H99.4589V38.2723H99.4525Z" fill="#43423E"/>
<path d="M131.799 32.76C133.944 32.76 135.278 33.9653 135.278 35.7986V35.8239C135.278 37.8539 133.644 38.9323 131.614 38.9323H129.795V41.8567H128.187V32.76H131.799ZM131.672 37.4923C132.884 37.4923 133.644 36.8135 133.644 35.8683V35.843C133.644 34.7646 132.871 34.219 131.672 34.219H129.801V37.4923H131.672Z" fill="#43423E"/>
<path d="M139.465 32.7599H143.543C144.692 32.7599 145.598 33.0961 146.185 33.667C146.67 34.1745 146.945 34.8343 146.945 35.6272V35.6526C146.945 37.1497 146.045 38.0441 144.775 38.4057L147.245 41.8502H145.337L143.09 38.6785H141.079V41.8502H139.471V32.7536L139.465 32.7599ZM143.422 37.2702C144.571 37.2702 145.305 36.6866 145.305 35.7477V35.7224C145.305 34.7328 144.609 34.2126 143.409 34.2126H141.067V37.2638H143.422V37.2702Z" fill="#43423E"/>
<path d="M151.451 32.7599H158.236V34.1872H153.059V36.5534H157.648V37.9934H153.059V40.4229H158.299V41.8502H151.451V32.7536V32.7599Z" fill="#43423E"/>
<path d="M162.129 40.5305L163.099 39.3886C163.986 40.1562 164.848 40.5685 165.99 40.5685C166.986 40.5685 167.612 40.0991 167.612 39.4267V39.4013C167.612 38.7669 167.248 38.3863 165.544 38.0121C163.597 37.5553 162.499 36.959 162.499 35.297V35.2716C162.499 33.7111 163.808 32.6327 165.627 32.6327C166.973 32.6327 168.007 33.0324 168.945 33.7746L168.084 34.9798C167.248 34.3709 166.437 34.0473 165.601 34.0473C164.663 34.0473 164.114 34.5168 164.114 35.1257V35.1511C164.114 35.8552 164.535 36.1661 166.297 36.5784C168.218 37.0732 169.226 37.7203 169.226 39.2427V39.2681C169.226 40.9808 167.88 41.9831 165.958 41.9831C164.548 41.9831 163.239 41.5137 162.142 40.5305H162.129Z" fill="#43423E"/>
<path d="M172.903 40.5305L173.873 39.3886C174.76 40.1562 175.622 40.5685 176.764 40.5685C177.76 40.5685 178.385 40.0991 178.385 39.4267V39.4013C178.385 38.7669 178.021 38.3863 176.317 38.0121C174.371 37.5553 173.273 36.959 173.273 35.297V35.2716C173.273 33.7111 174.581 32.6327 176.4 32.6327C177.747 32.6327 178.781 33.0324 179.719 33.7746L178.858 34.9798C178.021 34.3709 177.211 34.0473 176.375 34.0473C175.437 34.0473 174.888 34.5168 174.888 35.1257V35.1511C174.888 35.8552 175.309 36.1661 177.07 36.5784C178.992 37.0732 180 37.7203 180 39.2427V39.2681C180 40.9808 178.653 41.9831 176.732 41.9831C175.322 41.9831 174.013 41.5137 172.915 40.5305H172.903Z" fill="#43423E"/>
</svg>