<svg width="240" height="91" viewBox="0 0 240 91" fill="none" xmlns="http://www.w3.org/2000/svg">
<path d="M37.992 41.8068C37.9283 41.4243 37.8645 40.7869 37.7371 39.8307C37.6733 38.747 37.2908 37.8546 36.5259 37.3446C37.5458 36.8347 38.1833 35.751 38.1833 34.2849C38.1833 31.7351 36.3984 30.3327 33.2749 30.3327H28.0478V43.2092H30.4701V38.3645H33.4024C34.6135 38.3645 35.1873 38.9382 35.251 40.1494C35.251 40.8506 35.3147 41.488 35.3785 41.998C35.4422 42.508 35.6335 43.0179 36.0797 43.2092H38.8207C37.992 42.3167 37.9283 42.1255 37.8645 41.8705L37.992 41.8068ZM33.2112 36.0697H30.5339V32.4363H33.2112C34.996 32.4363 35.6972 33.1375 35.6972 34.2849C35.6972 35.4323 34.996 36.0697 33.2112 36.0697Z" fill="#B83A4B"/>
<path d="M49.2749 32.5V30.2689H40.2869V43.0817H49.4661V40.8506H42.7092V37.5996H48.7012V35.4323H42.7092V32.5H49.2749Z" fill="#B83A4B"/>
<path d="M57.8167 43.0817L62.9801 30.2689H60.3665L56.7331 39.6394L52.9084 30.2689H50.2948L55.4582 43.0817H57.8167Z" fill="#B83A4B"/>
<path d="M66.4223 30.2689H64V43.1454H66.4223V30.2689Z" fill="#B83A4B"/>
<path d="M77.8964 40.8506H71.1394V37.5996H77.1315V35.4323H71.1394V32.5H77.7052V30.2689H68.7171V43.0817H77.8964V40.8506Z" fill="#B83A4B"/>
<path d="M92.749 30.2689L90.5179 38.9382L88.0956 30.2689H85.8645L83.506 38.9382L81.2749 30.2689H78.7888L82.1036 43.0817H84.7171L87.012 34.7311L89.243 43.0817H91.8566L95.1713 30.2689H92.749Z" fill="#B83A4B"/>
<path d="M100.908 41.1693C100.08 41.1693 99.3785 40.9143 98.8048 40.4044C98.2311 39.8944 97.9761 39.6394 97.9124 38.3008H95.6175C95.6175 41.8705 97.9761 43.3367 100.908 43.3367C103.841 43.3367 105.88 41.8705 105.88 39.512C105.88 37.1534 104.606 36.1335 102.311 35.6873L100.207 35.241C98.741 34.9223 98.4223 34.6673 98.4223 33.7749C98.4223 32.8825 99.0598 32.1175 100.781 32.1175C102.502 32.1175 103.394 32.8187 103.458 34.9861H105.753C105.753 31.5438 103.713 30.0139 100.781 30.0139C97.8486 30.0139 96 31.5438 96 33.9661C96 36.3884 99.1872 37.5359 101.61 38.0458C103.139 38.3645 103.522 38.747 103.522 39.6394C103.522 40.5319 102.821 41.2331 100.972 41.2331L100.908 41.1693Z" fill="#B83A4B"/>
<path d="M118.502 30.0139C114.741 30.0139 112.127 32.755 112.127 36.7072C112.127 40.6594 114.741 43.3367 118.502 43.3367C122.263 43.3367 124.876 40.5956 124.876 36.6434C124.876 32.6912 124.303 33.0737 123.092 31.8626C121.88 30.6514 120.351 30.0139 118.502 30.0139ZM118.502 41.1056C116.207 41.1056 114.677 39.4482 114.677 36.7072C114.677 33.9661 116.207 32.3088 118.502 32.3088C120.797 32.3088 122.327 33.9661 122.327 36.7072C122.327 39.4482 120.797 41.1056 118.502 41.1056Z" fill="#B83A4B"/>
<path d="M134.502 35.6235H129.084V32.5H135.394V30.2689H126.661V43.0817H129.084V37.8546H134.502V35.6235Z" fill="#B83A4B"/>
<path d="M37.0996 51.6235V49.3924H28.1116V62.2052H37.2271V59.9741H30.4701V56.7231H36.5259V54.5558H30.4701V51.6235H37.0996Z" fill="#B83A4B"/>
<path d="M44.6215 62.4602C47.8725 62.4602 49.9761 60.4841 50.6135 57.1056H48.1912C47.8088 59.1454 46.5976 60.2291 44.6215 60.2291C42.6454 60.2291 40.8606 58.5717 40.8606 55.8307C40.8606 53.0896 42.4542 51.4323 44.6215 51.4323C46.7888 51.4323 47.8088 52.4522 48.1912 54.4283H50.6135C50.0398 51.0498 47.8725 49.2012 44.6215 49.2012C41.3705 49.2012 38.3108 52.006 38.3108 55.8307C38.3108 59.6554 38.8845 59.4004 40.0956 60.6753C41.3068 61.8865 42.7729 62.5239 44.6215 62.5239V62.4602Z" fill="#B83A4B"/>
<path d="M58.1355 62.4602C61.8964 62.4602 64.51 59.7191 64.51 55.8307C64.51 51.9422 63.9363 52.261 62.7251 50.9861C61.5139 49.7749 59.9841 49.1375 58.1355 49.1375C54.3745 49.1375 51.761 51.8785 51.761 55.7669C51.761 59.6554 54.3745 62.3964 58.1355 62.3964V62.4602ZM58.1355 51.4323C60.4303 51.4323 61.9602 53.0896 61.9602 55.8307C61.9602 58.5717 60.4303 60.2291 58.1355 60.2291C55.8406 60.2291 54.3108 58.5717 54.3108 55.8307C54.3108 53.0896 55.8406 51.4323 58.1355 51.4323Z" fill="#B83A4B"/>
<path d="M68.6534 53.7271L74.9004 62.2052H76.8128V49.3924H74.4542V57.6793L68.3984 49.3924H66.2948V62.2052H68.6534V53.7271Z" fill="#B83A4B"/>
<path d="M85.0359 49.1375C81.2749 49.1375 78.6614 51.8785 78.6614 55.7669C78.6614 59.6554 81.2749 62.3964 85.0359 62.3964C88.7968 62.3964 91.4104 59.6554 91.4104 55.7669C91.4104 51.8785 90.8367 52.1972 89.6255 50.9223C88.4143 49.7112 86.8845 49.0737 85.0359 49.0737V49.1375ZM85.0359 60.2291C82.741 60.2291 81.2112 58.5717 81.2112 55.8307C81.2112 53.0896 82.741 51.4323 85.0359 51.4323C87.3307 51.4323 88.8606 53.0896 88.8606 55.8307C88.8606 58.5717 87.3307 60.2291 85.0359 60.2291Z" fill="#B83A4B"/>
<path d="M99.5697 58.253L96.6375 49.3924H93.1952V62.2052H95.6175V53.7908L98.6135 62.2052H100.59L103.458 53.8546V62.2052H105.944V49.3924H102.629L99.5697 58.253Z" fill="#B83A4B"/>
<path d="M110.661 49.3924H108.239V62.2689H110.661V49.3924Z" fill="#B83A4B"/>
<path d="M118.629 60.2291C116.526 60.2291 114.869 58.5717 114.869 55.8307C114.869 53.0896 116.462 51.4323 118.629 51.4323C120.797 51.4323 121.817 52.4522 122.199 54.4283H124.622C124.048 51.0498 121.88 49.2012 118.629 49.2012C115.378 49.2012 112.319 52.006 112.319 55.8307C112.319 59.6554 112.892 59.4004 114.104 60.6753C115.315 61.8865 116.781 62.5239 118.629 62.5239C121.88 62.5239 123.984 60.5478 124.622 57.1693H122.199C121.817 59.2092 120.606 60.2928 118.629 60.2928V60.2291Z" fill="#B83A4B"/>
<path d="M135.458 49.3924H133.036V62.2052H141.96V59.9741H135.458V49.3924Z" fill="#B83A4B"/>
<path d="M145.657 49.3924H143.235V62.2689H145.657V49.3924Z" fill="#B83A4B"/>
<path d="M146.869 51.6235H151.139V62.2052H153.626V51.6235H158.024V49.3924H146.869V51.6235Z" fill="#B83A4B"/>
<path d="M161.785 56.7231H167.777V54.5558H161.785V51.6235H168.351V49.3924H159.363V62.2052H168.542V59.9741H161.785V56.7231Z" fill="#B83A4B"/>
<path d="M180.143 58.8904C180.08 57.8068 179.697 56.9143 178.932 56.4044C179.952 55.8944 180.59 54.8108 180.59 53.3446C180.59 50.7948 178.805 49.3924 175.681 49.3924H170.454V62.2689H172.877V57.4243H175.809C177.02 57.4243 177.594 57.998 177.657 59.2092C177.657 59.9104 177.721 60.5478 177.785 61.0578C177.849 61.5677 178.04 62.0777 178.486 62.2689H181.227C180.398 61.3765 180.335 61.1853 180.271 60.9303C180.207 60.5478 180.143 59.9104 180.016 58.9542L180.143 58.8904ZM175.618 55.1932H172.94V51.5598H175.618C177.402 51.5598 178.104 52.261 178.104 53.4084C178.104 54.5558 177.402 55.1932 175.618 55.1932Z" fill="#B83A4B"/>
<path d="M187.155 49.3924L181.928 62.2689H184.478L185.88 58.763H190.789L192.255 62.2689H194.932L189.578 49.3924H187.155ZM186.773 56.5319L188.367 52.7709L189.896 56.5319H186.773Z" fill="#B83A4B"/>
<path d="M193.466 51.6235H197.737V62.2052H200.223V51.6235H204.622V49.3924H193.466V51.6235Z" fill="#B83A4B"/>
<path d="M213.865 57.2331C213.865 59.2729 212.908 60.1653 211.06 60.1653C209.211 60.1653 208.319 59.2729 208.319 57.1693V49.3287H205.833V57.1693C205.833 60.8028 207.936 62.4602 211.06 62.4602C214.183 62.4602 216.287 60.739 216.287 57.1693V49.3287H213.865V57.2331Z" fill="#B83A4B"/>
<path d="M228.271 58.8904C228.207 57.8068 227.825 56.9143 227.06 56.4044C228.08 55.8944 228.717 54.8108 228.717 53.3446C228.717 50.7948 226.932 49.3924 223.809 49.3924H218.582V62.2689H221.004V57.4243H223.936C225.147 57.4243 225.721 57.998 225.785 59.2092C225.785 59.9104 225.849 60.5478 225.912 61.0578C225.976 61.5677 226.167 62.0777 226.614 62.2689H229.355C228.526 61.3765 228.462 61.1853 228.398 60.9303C228.335 60.5478 228.271 59.9104 228.143 58.9542L228.271 58.8904ZM223.745 55.1932H221.068V51.5598H223.745C225.53 51.5598 226.231 52.261 226.231 53.4084C226.231 54.5558 225.53 55.1932 223.745 55.1932Z" fill="#B83A4B"/>
<path d="M233.243 59.9741V56.7231H239.235V54.5558H233.243V51.6235H239.809V49.3924H230.821V62.2052H240V59.9741H233.243Z" fill="#B83A4B"/>
<path d="M89.1793 76.8665C89.1793 83.9422 83.4422 89.6793 76.3665 89.6793H14.0877C7.01195 89.6793 1.2749 83.9422 1.2749 76.8665V14.5877C1.2749 7.51195 7.01195 1.7749 14.0877 1.7749H76.3665C83.4422 1.7749 89.1793 7.51195 89.1793 14.5877V22.5558H90.4542V14.5877C90.4542 6.81076 84.1434 0.5 76.3665 0.5H14.0877C6.31076 0.5 0 6.81076 0 14.5877V76.8665C0 84.6434 6.31076 90.9542 14.0877 90.9542H76.3665C84.1434 90.9542 90.4542 84.6434 90.4542 76.8665V69.5996H89.1793V76.8665Z" fill="#B83A4B"/>
</svg>