<svg width="14" height="14" viewBox="0 0 14 14" fill="none" xmlns="http://www.w3.org/2000/svg">
<g clip-path="url(#clip0_1_9013)">
<path d="M14 7C14 10.8664 10.8664 14 7 14C3.13359 14 0 10.8664 0 7C0 3.13359 3.13359 0 7 0C10.8664 0 14 3.13359 14 7Z" fill="#A6CE39"/>
<path d="M4.71954 10.1828H3.87735V4.32578H4.71954V6.97265V10.1828Z" fill="white"/>
<path d="M5.95547 4.32578H8.23047C10.3961 4.32578 11.3477 5.87343 11.3477 7.25703C11.3477 8.76093 10.1719 10.1883 8.24141 10.1883H5.95547V4.32578ZM6.79766 9.42812H8.13751C10.0461 9.42812 10.4836 7.9789 10.4836 7.25703C10.4836 6.08124 9.73438 5.08593 8.09376 5.08593H6.79766V9.42812Z" fill="white"/>
<path d="M4.85078 3.10624C4.85078 3.40702 4.60469 3.65858 4.29844 3.65858C3.99219 3.65858 3.74609 3.40702 3.74609 3.10624C3.74609 2.79999 3.99219 2.55389 4.29844 2.55389C4.60469 2.55389 4.85078 2.80546 4.85078 3.10624Z" fill="white"/>
</g>
<defs>
<clipPath id="clip0_1_9013">
<rect width="14" height="14" fill="white"/>
</clipPath>
</defs>
</svg>
